REM MD5 6b35b02b50dcb4b69117a3d81c9cb56d
FILE "Euro Demo 04-99 'Action Special' (Germany).bin" BINARY
  TRACK 01 MODE2/2352
    INDEX 01 00:00:00
  TRACK 02 AUDIO
    INDEX 00 34:58:38
    INDEX 01 35:00:38
  TRACK 03 AUDIO
    INDEX 00 38:00:13
    INDEX 01 38:02:13
  TRACK 04 AUDIO
    INDEX 00 42:16:21
    INDEX 01 42:18:21
REM LEADOUT 45:19:53
